<svg width="1280" height="720" xmlns="http://www.w3.org/2000/svg" xmlns:xlink="http://www.w3.org/1999/xlink" overflow="hidden"><defs><clipPath id="clip0"><rect x="924" y="149" width="78" height="78"/></clipPath><clipPath id="clip1"><rect x="924" y="149" width="78" height="78"/></clipPath><clipPath id="clip2"><rect x="924" y="149" width="78" height="78"/></clipPath><clipPath id="clip3"><rect x="924" y="323" width="78" height="78"/></clipPath><clipPath id="clip4"><rect x="924" y="323" width="78" height="78"/></clipPath><clipPath id="clip5"><rect x="924" y="323" width="78" height="78"/></clipPath><clipPath id="clip6"><rect x="924" y="514" width="78" height="79"/></clipPath><clipPath id="clip7"><rect x="924" y="514" width="78" height="79"/></clipPath><clipPath id="clip8"><rect x="924" y="514" width="78" height="79"/></clipPath><clipPath id="clip9"><rect x="178" y="479" width="78" height="78"/></clipPath><clipPath id="clip10"><rect x="178" y="479" width="78" height="78"/></clipPath><clipPath id="clip11"><rect x="178" y="479" width="78" height="78"/></clipPath><clipPath id="clip12"><rect x="618" y="78" width="14" height="14"/></clipPath><clipPath id="clip13"><rect x="618" y="78" width="14" height="14"/></clipPath><clipPath id="clip14"><rect x="618" y="78" width="14" height="14"/></clipPath></defs><g><rect x="0" y="0" width="1280" height="720" fill="#000000" fill-opacity="0"/><path d="M549 153.502C549 96.3395 595.34 50 652.502 50L1066.5 50C1123.66 50 1170 96.3395 1170 153.502L1170 572.498C1170 629.66 1123.66 676 1066.5 676L652.502 676C595.34 676 549 629.66 549 572.498Z" stroke="#69CA00" stroke-width="2" stroke-miterlimit="8" fill="#69CA00" fill-rule="evenodd"/><path d="M897 87.0005C897 74.8499 906.85 65 919.001 65L1007 65C1019.15 65 1029 74.8499 1029 87.0005L1029 633C1029 645.15 1019.15 655 1007 655L919.001 655C906.85 655 897 645.15 897 633Z" stroke="#0EAFE0" stroke-width="2" stroke-miterlimit="8" fill="#0EAFE0" fill-rule="evenodd"/><path d="M324 106.667C324 94.7007 333.701 85 345.667 85L486.333 85C498.299 85 508 94.7007 508 106.667L508 193.333C508 205.299 498.299 215 486.333 215L345.667 215C333.701 215 324 205.299 324 193.333Z" stroke="#F9B500" stroke-width="2" stroke-miterlimit="8" fill="#F9B500" fill-rule="evenodd"/><path d="M151 73.0005C151 60.85 160.85 51 173.001 51L260.999 51C273.15 51 283 60.85 283 73.0005L283 587.999C283 600.15 273.15 610 260.999 610L173.001 610C160.85 610 151 600.15 151 587.999Z" stroke="#F9B500" stroke-width="2" stroke-miterlimit="8" fill="#F9B500" fill-rule="evenodd"/><path d="M225.027 235 225.027 235 209.676 235C207.368 235 205.261 236.392 204.458 238.579L202.953 242.457 192.719 242.457C189.609 242.457 187 244.943 187 248.025L187 281.432C187 284.514 189.609 287 192.719 287L241.381 287C244.492 287 247 284.514 247 281.432L247 248.025C247 244.943 244.492 242.457 241.381 242.457L231.147 242.457 229.441 237.983C228.739 236.193 227.033 235 225.027 235ZM225.027 238.679 225.027 238.679C225.428 238.679 225.829 238.977 225.93 239.275L228.538 246.136 241.381 246.136C242.485 246.136 243.288 246.931 243.288 248.025L243.288 281.432C243.288 282.426 242.485 283.321 241.381 283.321L192.719 283.321C191.615 283.321 190.813 282.426 190.813 281.432L190.813 248.025C190.813 246.931 191.615 246.136 192.719 246.136L205.562 246.136 207.97 239.872C208.171 239.176 208.873 238.679 209.676 238.679L225.027 238.679ZM213.288 264.728 213.288 264.728C213.288 262.641 214.993 261.05 217 261.05 218.104 261.05 218.906 260.155 218.906 259.161 218.906 258.166 218.104 257.272 217 257.272 212.886 257.272 209.575 260.652 209.575 264.728 209.575 265.723 210.378 266.618 211.381 266.618 212.485 266.618 213.288 265.723 213.288 264.728ZM217 254.488 217 254.488C211.381 254.488 206.766 259.061 206.766 264.728 206.766 270.396 211.381 274.969 217 274.969 222.719 274.969 227.334 270.396 227.334 264.728 227.334 259.061 222.719 254.488 217 254.488ZM217 278.648 217 278.648C209.274 278.648 202.953 272.384 202.953 264.728 202.953 257.073 209.274 250.809 217 250.809 224.826 250.809 231.147 257.073 231.147 264.728 231.147 272.384 224.826 278.648 217 278.648Z" fill="#FFFFFF" fill-rule="evenodd"/><path d="M1141.25 328C1083.92 328 1083.92 328 1083.92 328 1082.3 328 1081 329.317 1081 330.798 1081 366.68 1081 366.68 1081 366.68 1081 368.161 1082.3 369.478 1083.92 369.478 1110.31 369.478 1110.31 369.478 1110.31 369.478 1110.31 376.556 1110.31 376.556 1110.31 376.556 1091.85 376.556 1091.85 376.556 1091.85 376.556 1091.2 376.556 1090.56 377.214 1090.56 377.873 1090.56 379.848 1090.56 379.848 1090.56 379.848 1090.56 380.506 1091.2 381 1091.85 381 1133.31 381 1133.31 381 1133.31 381 1133.96 381 1134.44 380.506 1134.44 379.848 1134.44 377.873 1134.44 377.873 1134.44 377.873 1134.44 377.214 1133.96 376.556 1133.31 376.556 1114.69 376.556 1114.69 376.556 1114.69 376.556 1114.69 369.478 1114.69 369.478 1114.69 369.478 1141.25 369.478 1141.25 369.478 1141.25 369.478 1142.7 369.478 1144 368.161 1144 366.68 1144 330.798 1144 330.798 1144 330.798 1144 329.317 1142.7 328 1141.25 328ZM1139.79 365.199C1085.37 365.199 1085.37 365.199 1085.37 365.199 1085.37 332.28 1085.37 332.28 1085.37 332.28 1139.79 332.28 1139.79 332.28 1139.79 332.28L1139.79 365.199Z" fill="#FFFFFF" fill-rule="evenodd"/><path d="M241.861 382C240.723 382 240.723 382 240.723 382 240.09 382 239.584 382.507 239.584 383.141 238.951 395.19 229.083 404.702 217.063 404.702 208.46 404.702 200.742 399.883 196.82 392.4 196.82 392.273 196.82 392.273 196.82 392.273 200.236 392.273 200.236 392.273 200.236 392.273 200.995 392.273 201.501 391.639 201.501 391.005 201.501 389.99 201.501 389.99 201.501 389.99 201.501 389.356 200.995 388.849 200.236 388.849 192.139 388.849 192.139 388.849 192.139 388.849 191.506 388.849 191 389.356 191 389.99 191 398.868 191 398.868 191 398.868 191 399.502 191.506 400.01 192.139 400.01 193.151 400.01 193.151 400.01 193.151 400.01 193.91 400.01 194.416 399.502 194.416 398.868 194.416 394.81 194.416 394.81 194.416 394.81 194.543 395.19 194.543 395.19 194.543 395.19 199.224 403.054 207.827 408 217.063 408 230.854 408 242.367 397.22 243 383.268 243 383.015 242.873 382.634 242.62 382.38 242.494 382.127 242.114 382 241.861 382Z" fill="#FFFFFF" fill-rule="evenodd"/><path d="M241.861 363.99C240.849 363.99 240.849 363.99 240.849 363.99 240.217 363.99 239.584 364.498 239.584 365.259 239.584 369.19 239.584 369.19 239.584 369.19 239.457 368.937 239.457 368.937 239.457 368.937 234.776 360.946 226.173 356 217.063 356 203.146 356 191.759 366.907 191 380.732 191 381.112 191.127 381.366 191.38 381.62 191.506 381.873 191.886 382 192.139 382 193.277 382 193.277 382 193.277 382 193.91 382 194.416 381.493 194.416 380.859 195.049 368.81 204.917 359.424 217.063 359.424 225.54 359.424 233.258 364.117 237.18 371.727 237.18 371.854 237.18 371.854 237.18 371.854 233.511 371.854 233.511 371.854 233.511 371.854 232.878 371.854 232.372 372.361 232.372 372.995 232.372 374.01 232.372 374.01 232.372 374.01 232.372 374.771 232.878 375.278 233.511 375.278 241.861 375.278 241.861 375.278 241.861 375.278 242.494 375.278 243 374.771 243 374.01 243 365.259 243 365.259 243 365.259 243 364.498 242.494 363.99 241.861 363.99Z" fill="#FFFFFF" fill-rule="evenodd"/><path d="M402.282 420C402 420 402 420 402 420 394.254 420 386.789 422.402 381.296 426.924 375.662 431.446 372.423 437.522 372.423 444.022 372.423 449.25 374.535 454.337 378.479 458.717 378.479 458.717 378.479 458.717 378.479 458.717 378.479 458.717 378.479 458.717 378.479 458.717 376.648 463.38 373.127 467.196 372.986 467.196 372.282 468.043 372 469.174 372.563 470.304 372.986 471.293 373.972 472 375.099 472 375.239 472 375.239 472 375.239 472 382.282 472 387.775 469.174 391.155 466.772 391.296 466.63 391.296 466.63 391.296 466.63 391.296 466.63 391.296 466.63 391.296 466.63 394.817 467.761 398.338 468.326 402 468.467 402.141 468.467 402.141 468.467 402.141 468.467 410.028 468.467 417.493 465.924 422.986 461.402 428.761 456.88 431.859 450.804 431.859 444.304 432 431.022 418.62 420 402.282 420ZM420.31 458.717C415.521 462.533 409.042 464.652 402.282 464.652 402 464.652 402 464.652 402 464.652 398.761 464.511 395.521 464.087 392.423 463.098 390.592 462.533 390.592 462.533 390.592 462.533 389.042 463.522 389.042 463.522 389.042 463.522 386.648 465.359 382.563 467.478 377.493 468.043 377.352 468.043 377.352 468.043 377.352 468.043 377.493 467.902 377.493 467.902 377.493 467.902 378.901 466.065 380.732 463.239 382 460.13 382.845 457.87 382.845 457.87 382.845 457.87 381.296 456.174 381.296 456.174 381.296 456.174 377.915 452.641 376.225 448.402 376.225 444.022 376.366 432.859 387.915 423.815 402 423.815 402.282 423.815 402.282 423.815 402.282 423.815 409.183 423.815 415.662 425.935 420.592 429.891 425.38 433.707 428.056 438.935 428.056 444.304 428.056 449.815 425.239 454.902 420.31 458.717Z" fill="#0EAFE0" fill-rule="evenodd"/><path d="M206.153 163C200.198 163 200.198 163 200.198 163 198.519 163 197.145 164.357 197.145 166.016 197.145 170.389 197.145 170.389 197.145 170.389 187.221 170.389 187.221 170.389 187.221 170.389 186.458 170.389 186 170.992 186 171.595 186 173.405 186 173.405 186 173.405 186 174.008 186.458 174.611 187.221 174.611 197.145 174.611 197.145 174.611 197.145 174.611 197.145 178.984 197.145 178.984 197.145 178.984 197.145 180.643 198.519 182 200.198 182 206.153 182 206.153 182 206.153 182 207.832 182 209.206 180.643 209.206 178.984 209.206 174.611 209.206 174.611 209.206 174.611 244.779 174.611 244.779 174.611 244.779 174.611 245.389 174.611 246 174.008 246 173.405 246 171.595 246 171.595 246 171.595 246 170.992 245.389 170.389 244.779 170.389 209.206 170.389 209.206 170.389 209.206 170.389 209.206 166.016 209.206 166.016 209.206 166.016 209.206 164.357 207.832 163 206.153 163ZM201.42 167.222C204.931 167.222 204.931 167.222 204.931 167.222 204.931 177.778 204.931 177.778 204.931 177.778 201.42 177.778 201.42 177.778 201.42 177.778L201.42 167.222Z" fill="#FFFFFF" fill-rule="evenodd"/><path d="M222.641 149.2C222.641 153.84 222.641 153.84 222.641 153.84 187.221 153.84 187.221 153.84 187.221 153.84 186.458 153.84 186 154.32 186 154.96 186 157.04 186 157.04 186 157.04 186 157.68 186.458 158.32 187.221 158.32 222.641 158.32 222.641 158.32 222.641 158.32 222.641 162.8 222.641 162.8 222.641 162.8 222.641 164.56 224.015 166 225.695 166 231.802 166 231.802 166 231.802 166 233.481 166 234.855 164.56 234.855 162.8 234.855 158.32 234.855 158.32 234.855 158.32 244.779 158.32 244.779 158.32 244.779 158.32 245.389 158.32 246 157.68 246 157.04 246 154.96 246 154.96 246 154.96 246 154.32 245.389 153.84 244.779 153.84 234.855 153.84 234.855 153.84 234.855 153.84 234.855 149.2 234.855 149.2 234.855 149.2 234.855 147.44 233.481 146 231.802 146 225.695 146 225.695 146 225.695 146 224.015 146 222.641 147.44 222.641 149.2ZM226.916 150.48C230.58 150.48 230.58 150.48 230.58 150.48 230.58 161.52 230.58 161.52 230.58 161.52 226.916 161.52 226.916 161.52 226.916 161.52L226.916 150.48Z" fill="#FFFFFF" fill-rule="evenodd"/><path d="M204.168 133.04C204.168 137.296 204.168 137.296 204.168 137.296 187.221 137.296 187.221 137.296 187.221 137.296 186.458 137.296 186 137.904 186 138.512 186 140.336 186 140.336 186 140.336 186 141.096 186.458 141.552 187.221 141.552 204.168 141.552 204.168 141.552 204.168 141.552 204.168 145.96 204.168 145.96 204.168 145.96 204.168 147.632 205.542 149 207.221 149 213.176 149 213.176 149 213.176 149 214.855 149 216.229 147.632 216.229 145.96 216.229 141.552 216.229 141.552 216.229 141.552 244.779 141.552 244.779 141.552 244.779 141.552 245.389 141.552 246 141.096 246 140.336 246 138.512 246 138.512 246 138.512 246 137.904 245.389 137.296 244.779 137.296 216.229 137.296 216.229 137.296 216.229 137.296 216.229 133.04 216.229 133.04 216.229 133.04 216.229 131.216 214.855 130 213.176 130 207.221 130 207.221 130 207.221 130 205.542 130 204.168 131.216 204.168 133.04ZM208.29 134.104C211.954 134.104 211.954 134.104 211.954 134.104 211.954 144.744 211.954 144.744 211.954 144.744 208.29 144.744 208.29 144.744 208.29 144.744L208.29 134.104Z" fill="#FFFFFF" fill-rule="evenodd"/><path d="M641.554 148.172C641.257 147.276 640.514 146.53 639.622 146.082 636.055 144.439 636.055 144.439 636.055 144.439 636.65 143.544 636.798 142.499 636.65 141.304 636.501 139.961 635.907 138.766 634.867 138.02 634.421 137.721 634.123 137.423 633.678 137.273 598.753 121.896 598.753 121.896 598.753 121.896 596.524 121 593.849 121.896 592.511 123.986 583.743 139.513 583.743 139.513 583.743 139.513 583.149 140.707 583 142.051 583.297 143.245 583.594 144.589 584.486 145.634 585.675 146.38 585.824 146.53 586.121 146.53 586.418 146.679 602.023 153.248 602.023 153.248 602.023 153.248 598.159 163.549 598.159 163.549 598.159 163.549 587.161 163.549 587.161 163.549 587.161 163.549 587.161 158.324 587.161 158.324 587.161 158.324 587.161 157.577 586.567 156.98 585.972 156.98 584.338 156.98 584.338 156.98 584.338 156.98 583.743 156.98 583.149 157.577 583.149 158.324 583.149 172.806 583.149 172.806 583.149 172.806 583.149 173.552 583.743 174 584.338 174 585.972 174 585.972 174 585.972 174 586.567 174 587.161 173.552 587.161 172.806 587.161 167.58 587.161 167.58 587.161 167.58 599.645 167.58 599.645 167.58 599.645 167.58 599.645 167.58 599.645 167.58 599.645 167.58 600.388 167.58 601.28 166.983 601.577 166.237 605.738 154.741 605.738 154.741 605.738 154.741 612.574 157.577 612.574 157.577 612.574 157.577 614.06 158.175 615.695 158.025 616.884 157.13 618.519 156.085 618.519 156.085 618.519 156.085 632.489 162.355 632.489 162.355 632.489 162.355 633.38 162.654 634.421 162.654 635.312 162.355 636.204 162.056 637.096 161.31 637.393 160.414 641.554 151.008 641.554 151.008 641.554 151.008 641.851 150.113 642 149.068 641.554 148.172ZM637.69 149.814C633.826 158.324 633.826 158.324 633.826 158.324 622.68 153.546 622.68 153.546 622.68 153.546 632.489 147.425 632.489 147.425 632.489 147.425L637.69 149.814ZM614.804 153.696C614.655 153.845 614.358 153.845 614.06 153.845 587.904 142.946 587.904 142.946 587.904 142.946 587.756 142.797 587.756 142.797 587.756 142.797 587.458 142.797 587.31 142.648 587.31 142.349 587.161 142.051 587.161 141.752 587.31 141.454 596.078 126.076 596.078 126.076 596.078 126.076 596.078 126.076 596.524 125.33 597.118 125.628 632.043 141.006 632.043 141.006 632.043 141.006 632.34 141.155 632.489 141.304 632.637 141.603 632.637 141.752 632.637 142.051 632.637 142.2 632.489 142.499 632.489 142.648 632.191 142.648 614.804 153.696 614.804 153.696 614.804 153.696Z" fill="#FFFFFF" fill-rule="evenodd"/><path d="M783 136C777.486 136 773 140.262 773 145.5 773 150.738 777.486 155 783 155 788.514 155 793 150.738 793 145.5 793 140.262 788.514 136 783 136ZM783 150.579C780.055 150.579 777.657 148.301 777.657 145.503 777.657 142.706 780.055 140.428 783 140.428 785.945 140.428 788.343 142.706 788.343 145.503 788.343 148.301 785.948 150.579 783 150.579Z" fill="#FFFFFF" fill-rule="evenodd"/><path d="M807.463 149.972 804.495 148.144C804.647 146.718 804.647 145.279 804.495 143.853L807.102 142.221C808.382 141.443 808.95 139.909 808.487 138.5 807.175 134.503 805.407 131.534 802.386 128.244 801.364 127.139 799.666 126.881 798.343 127.626L795.471 129.265C794.288 128.421 793.038 127.708 791.746 127.136L791.746 123.859C791.746 122.358 790.669 121.037 789.181 120.716 784.782 119.761 781.553 119.761 777.266 120.716 775.762 121.04 774.711 122.332 774.711 123.859L774.711 127.136C773.382 127.728 772.133 128.447 770.986 129.271L768.113 127.623C766.801 126.874 765.106 127.132 764.084 128.238 761.116 131.426 759.51 134.196 758.155 138.451 757.695 139.883 758.313 141.463 759.622 142.211L762.481 143.85C762.329 145.266 762.329 146.698 762.481 148.117L759.619 149.769C758.293 150.541 757.692 152.084 758.155 153.526 759.5 157.771 761.106 160.538 764.084 163.743 765.119 164.861 766.778 165.116 768.117 164.361L770.999 162.713C772.172 163.56 773.425 164.276 774.724 164.851L774.724 168.128C774.724 169.619 775.785 170.947 777.252 171.284 779.427 171.761 781.325 172 783.222 172 785.119 172 787.016 171.761 789.191 171.284 790.672 170.963 791.746 169.642 791.746 168.141L791.746 164.861C793.075 164.266 794.324 163.55 795.471 162.726L798.353 164.374C799.682 165.133 801.335 164.891 802.369 163.782 806.055 159.864 808.259 156.368 808.924 153.399 809.221 152.078 808.633 150.701 807.463 149.972ZM787.072 161.643 787.072 167.013C784.554 167.464 781.919 167.464 779.398 167.013L779.398 161.653 777.834 161.104C775.953 160.453 774.228 159.468 772.711 158.177L771.455 157.107 766.742 159.799C765.092 157.879 763.774 155.619 762.901 153.226L767.614 150.534 767.307 148.932C766.95 146.983 766.95 145.007 767.307 143.065L767.614 141.459 762.901 138.768C763.777 136.358 765.069 134.15 766.742 132.195L771.455 134.886 772.711 133.817C774.245 132.522 775.967 131.537 777.838 130.89L779.398 130.34 779.398 124.967C781.916 124.513 784.55 124.516 787.072 124.967L787.072 130.327 788.636 130.877C790.517 131.528 792.239 132.512 793.759 133.804L795.015 134.873 799.732 132.178C801.305 133.961 803.12 136.253 804.075 138.755L799.365 141.446 799.672 143.049C800.029 144.998 800.029 146.97 799.672 148.915L799.365 150.521 804.075 153.213C803.129 155.691 801.308 157.99 799.732 159.789L795.015 157.094 793.762 158.164C792.229 159.459 790.503 160.443 788.636 161.09L787.072 161.643Z" fill="#FFFFFF" fill-rule="evenodd"/><path d="M819.5 126C817.569 126 816 127.569 816 129.5 816 131.431 817.569 133 819.5 133 821.431 133 823 131.431 823 129.5 822.997 127.569 821.427 126 819.5 126ZM819.5 130.291C819.063 130.291 818.709 129.937 818.709 129.5 818.709 129.063 819.063 128.709 819.5 128.709 819.937 128.709 820.291 129.063 820.291 129.5 820.291 129.937 819.937 130.291 819.5 130.291Z" fill="#FFFFFF" fill-rule="evenodd"/><path d="M829.814 127.208C829.598 126.067 828.625 125.237 827.5 125.237L827.111 125.237C826.959 124.926 826.798 124.638 826.621 124.364L826.821 124.02C827.391 123.011 827.182 121.731 826.321 120.981 825.281 120.075 824.43 119.575 823.18 119.142 822.121 118.762 820.941 119.208 820.378 120.197L820.178 120.541C819.849 120.521 819.524 120.521 819.195 120.541L818.996 120.197C818.432 119.208 817.256 118.758 816.203 119.129 814.914 119.579 814.063 120.075 813.058 120.958 812.198 121.721 811.982 123.005 812.549 124.007L812.749 124.36C812.569 124.638 812.408 124.926 812.259 125.237L811.509 125.237C810.375 125.237 809.402 126.063 809.196 127.198 808.938 128.547 808.935 129.552 809.186 130.905 809.402 132.049 810.375 132.876 811.499 132.876L812.259 132.876C812.411 133.186 812.572 133.474 812.749 133.752L812.559 134.086C811.982 135.114 812.208 136.401 813.091 137.145 814.096 137.995 814.937 138.451 816.309 138.888 816.541 138.964 816.779 139 817.014 139 817.804 139 818.564 138.587 819.005 137.872L819.195 137.562C819.527 137.581 819.853 137.585 820.184 137.562L820.371 137.862C820.938 138.795 822.053 139.212 823.087 138.878 824.469 138.425 825.303 137.972 826.276 137.155 827.169 136.404 827.394 135.111 826.814 134.086L826.624 133.752C826.805 133.474 826.966 133.186 827.114 132.876L827.494 132.876C828.628 132.876 829.601 132.049 829.807 130.915 830.062 129.565 830.065 128.56 829.814 127.208ZM827.088 129.946 825.162 129.946 824.823 130.921C824.614 131.546 824.279 132.142 823.831 132.69L823.177 133.478 824.147 135.194C823.677 135.548 823.174 135.849 822.649 136.083L821.679 134.367 820.69 134.556C820.03 134.688 819.356 134.685 818.696 134.556L817.707 134.367 816.737 136.083C816.196 135.842 815.69 135.544 815.236 135.194L816.206 133.468 815.555 132.684C815.12 132.155 814.785 131.556 814.56 130.911L814.221 129.936 812.295 129.936C812.23 129.347 812.23 128.755 812.295 128.167L814.218 128.167 814.556 127.191C814.766 126.566 815.101 125.971 815.549 125.422L816.203 124.635 815.233 122.919C815.703 122.558 816.206 122.257 816.724 122.029L817.694 123.745 818.683 123.557C819.344 123.428 820.017 123.428 820.677 123.557L821.666 123.745 822.636 122.029C823.177 122.27 823.68 122.568 824.137 122.919L823.177 124.645 823.828 125.429C824.263 125.958 824.598 126.556 824.823 127.201L825.158 128.173 827.085 128.173C827.149 128.762 827.149 129.357 827.088 129.946Z" fill="#FFFFFF" fill-rule="evenodd"/><path d="M825.5 150C823.02 150 821 152.02 821 154.5 821 156.98 823.02 159 825.5 159 827.98 159 830 156.98 830 154.5 830 152.02 827.983 150 825.5 150ZM825.5 155.517C824.939 155.517 824.483 155.061 824.483 154.5 824.483 153.939 824.939 153.483 825.5 153.483 826.061 153.483 826.517 153.939 826.517 154.5 826.517 155.061 826.061 155.517 825.5 155.517Z" fill="#FFFFFF" fill-rule="evenodd"/><path d="M837.767 152.851C837.501 151.48 836.297 150.485 834.902 150.485L834.422 150.485C834.238 150.115 834.037 149.768 833.817 149.434L834.064 149.022C834.771 147.811 834.508 146.277 833.445 145.374 832.156 144.287 831.104 143.688 829.558 143.168 828.249 142.713 826.789 143.247 826.088 144.434L825.841 144.85C825.434 144.824 825.032 144.824 824.624 144.85L824.378 144.434C823.681 143.25 822.224 142.71 820.921 143.155 819.326 143.695 818.274 144.29 817.03 145.351 815.965 146.267 815.698 147.805 816.399 149.009L816.646 149.434C816.425 149.768 816.225 150.112 816.037 150.485L815.106 150.485C813.702 150.485 812.498 151.476 812.242 152.838 811.923 154.454 811.919 155.662 812.232 157.285 812.498 158.656 813.702 159.65 815.097 159.65L816.037 159.65C816.225 160.024 816.422 160.367 816.646 160.701L816.412 161.103C815.698 162.337 815.975 163.882 817.07 164.775 818.313 165.793 819.356 166.342 821.053 166.866 821.342 166.957 821.635 167 821.928 167 822.908 167 823.845 166.506 824.391 165.645L824.624 165.272C825.036 165.298 825.437 165.298 825.848 165.272L826.081 165.632C826.782 166.751 828.163 167.252 829.443 166.853 831.156 166.31 832.189 165.766 833.389 164.785 834.491 163.882 834.774 162.334 834.057 161.103L833.824 160.701C834.044 160.367 834.245 160.024 834.432 159.65L834.902 159.65C836.307 159.65 837.51 158.659 837.767 157.298 838.076 155.681 838.079 154.477 837.767 152.851ZM834.393 156.136 832.005 156.136 831.587 157.308C831.327 158.057 830.916 158.773 830.357 159.431L829.548 160.374 830.745 162.432C830.163 162.857 829.541 163.217 828.89 163.499L827.69 161.44 826.463 161.666C825.644 161.823 824.812 161.823 823.993 161.666L822.77 161.44 821.569 163.499C820.898 163.207 820.277 162.851 819.711 162.432L820.911 160.361 820.102 159.418C819.563 158.783 819.148 158.067 818.872 157.294L818.455 156.126 816.07 156.126C815.991 155.423 815.991 154.709 816.07 154.003L818.455 154.003 818.872 152.831C819.132 152.082 819.543 151.365 820.102 150.707L820.911 149.765 819.711 147.703C820.293 147.268 820.915 146.912 821.556 146.637L822.756 148.698 823.983 148.472C824.802 148.315 825.634 148.315 826.453 148.472L827.677 148.698 828.877 146.64C829.548 146.931 830.17 147.288 830.735 147.707L829.548 149.778 830.354 150.72C830.893 151.355 831.307 152.072 831.584 152.844L832.001 154.012 834.389 154.012C834.471 154.719 834.471 155.429 834.393 156.136Z" fill="#FFFFFF" fill-rule="evenodd"/><path d="M100.087 104.955C100.772 103.596 101 102.01 100.315 100.425 99.4014 98.3868 98.2595 94.9895 97.1176 91.5923 95.0623 85.9303 93.0069 80.0418 91.1799 77.324 86.1557 70.3031 77.9342 66 69.2561 66 61.0346 66 61.0346 66 61.0346 66 47.3322 66 35.9135 76.6446 35.2284 89.554 35 96.8014 37.9689 103.596 43.2215 108.578 43.2215 129.188 43.2215 129.188 43.2215 129.188 43.2215 130.094 44.1349 131 45.0484 131 47.1038 131 47.1038 131 47.1038 131 48.0173 131 48.7024 130.094 48.7024 129.188 48.7024 106.087 48.7024 106.087 48.7024 106.087 47.3322 104.728 47.3322 104.728 47.3322 104.728 42.9931 100.878 40.7093 95.4425 40.7093 89.7805 41.1661 79.8153 50.301 71.4355 61.0346 71.4355 69.2561 71.4355 69.2561 71.4355 69.2561 71.4355 76.1073 71.4355 82.7301 74.8327 86.6125 80.4948 88.2111 82.5331 90.2664 88.4216 91.8651 93.4042 92.7785 96.3484 93.9204 99.2927 94.8339 101.784 87.2976 101.784 87.2976 101.784 87.2976 101.784 87.2976 114.24 87.2976 114.24 87.2976 114.24 87.2976 116.052 85.699 117.638 84.1003 117.638 71.3114 117.638 71.3114 117.638 71.3114 117.638 71.3114 129.188 71.3114 129.188 71.3114 129.188 71.3114 130.094 71.9965 131 72.91 131 74.9654 131 74.9654 131 74.9654 131 75.8789 131 76.7924 130.094 76.7924 129.188 76.7924 123.073 76.7924 123.073 76.7924 123.073 84.1003 123.073 84.1003 123.073 84.1003 123.073 88.8962 123.073 92.7785 119.223 92.7785 114.24 92.7785 107.22 92.7785 107.22 92.7785 107.22 95.9758 107.22 95.9758 107.22 95.9758 107.22 97.5744 107.22 99.173 106.314 100.087 104.955Z" fill="#0EAFE0" fill-rule="evenodd"/><path d="M72 90C72 87.7909 73.7909 86 76 86 78.2091 86 80 87.7909 80 90 80 92.2091 78.2091 94 76 94 73.7909 94 72 92.2091 72 90Z" fill="#0EAFE0" fill-rule="evenodd"/><path d="M655.282 420C655 420 655 420 655 420 647.254 420 639.789 422.402 634.296 426.924 628.662 431.446 625.423 437.522 625.423 444.022 625.423 449.25 627.535 454.337 631.479 458.717 631.479 458.717 631.479 458.717 631.479 458.717 631.479 458.717 631.479 458.717 631.479 458.717 629.648 463.38 626.127 467.196 625.986 467.196 625.282 468.043 625 469.174 625.563 470.304 625.986 471.293 626.972 472 628.099 472 628.239 472 628.239 472 628.239 472 635.282 472 640.775 469.174 644.155 466.772 644.296 466.63 644.296 466.63 644.296 466.63 644.296 466.63 644.296 466.63 644.296 466.63 647.817 467.761 651.338 468.326 655 468.467 655.141 468.467 655.141 468.467 655.141 468.467 663.028 468.467 670.493 465.924 675.986 461.402 681.761 456.88 684.859 450.804 684.859 444.304 685 431.022 671.62 420 655.282 420ZM673.31 458.717C668.521 462.533 662.042 464.652 655.282 464.652 655 464.652 655 464.652 655 464.652 651.761 464.511 648.521 464.087 645.423 463.098 643.592 462.533 643.592 462.533 643.592 462.533 642.042 463.522 642.042 463.522 642.042 463.522 639.648 465.359 635.563 467.478 630.493 468.043 630.352 468.043 630.352 468.043 630.352 468.043 630.493 467.902 630.493 467.902 630.493 467.902 631.901 466.065 633.732 463.239 635 460.13 635.845 457.87 635.845 457.87 635.845 457.87 634.296 456.174 634.296 456.174 634.296 456.174 630.915 452.641 629.225 448.402 629.225 444.022 629.366 432.859 640.915 423.815 655 423.815 655.282 423.815 655.282 423.815 655.282 423.815 662.183 423.815 668.662 425.935 673.592 429.891 678.38 433.707 681.056 438.935 681.056 444.304 681.056 449.815 678.239 454.902 673.31 458.717Z" fill="#FFFFFF" fill-rule="evenodd"/><path d="M1255.25 328C1197.92 328 1197.92 328 1197.92 328 1196.3 328 1195 329.317 1195 330.798 1195 366.68 1195 366.68 1195 366.68 1195 368.161 1196.3 369.478 1197.92 369.478 1224.31 369.478 1224.31 369.478 1224.31 369.478 1224.31 376.556 1224.31 376.556 1224.31 376.556 1205.85 376.556 1205.85 376.556 1205.85 376.556 1205.2 376.556 1204.56 377.214 1204.56 377.873 1204.56 379.848 1204.56 379.848 1204.56 379.848 1204.56 380.506 1205.2 381 1205.85 381 1247.31 381 1247.31 381 1247.31 381 1247.96 381 1248.44 380.506 1248.44 379.848 1248.44 377.873 1248.44 377.873 1248.44 377.873 1248.44 377.214 1247.96 376.556 1247.31 376.556 1228.69 376.556 1228.69 376.556 1228.69 376.556 1228.69 369.478 1228.69 369.478 1228.69 369.478 1255.25 369.478 1255.25 369.478 1255.25 369.478 1256.7 369.478 1258 368.161 1258 366.68 1258 330.798 1258 330.798 1258 330.798 1258 329.317 1256.7 328 1255.25 328ZM1253.79 365.199C1199.37 365.199 1199.37 365.199 1199.37 365.199 1199.37 332.28 1199.37 332.28 1199.37 332.28 1253.79 332.28 1253.79 332.28 1253.79 332.28L1253.79 365.199Z" fill="#0EAFE0" fill-rule="evenodd"/><path d="M469.027 122 469.027 122 453.676 122C451.368 122 449.261 123.419 448.458 125.648L446.953 129.6 436.719 129.6C433.609 129.6 431 132.134 431 135.275L431 169.325C431 172.467 433.609 175 436.719 175L485.381 175C488.492 175 491 172.467 491 169.325L491 135.275C491 132.134 488.492 129.6 485.381 129.6L475.147 129.6 473.441 125.04C472.739 123.216 471.033 122 469.027 122ZM469.027 125.75 469.027 125.75C469.428 125.75 469.829 126.054 469.93 126.358L472.538 133.35 485.381 133.35C486.485 133.35 487.288 134.161 487.288 135.275L487.288 169.325C487.288 170.338 486.485 171.25 485.381 171.25L436.719 171.25C435.615 171.25 434.813 170.338 434.813 169.325L434.813 135.275C434.813 134.161 435.615 133.35 436.719 133.35L449.562 133.35 451.97 126.966C452.171 126.256 452.873 125.75 453.676 125.75L469.027 125.75ZM457.288 152.3 457.288 152.3C457.288 150.172 458.993 148.551 461 148.551 462.104 148.551 462.906 147.639 462.906 146.625 462.906 145.612 462.104 144.7 461 144.7 456.886 144.7 453.575 148.145 453.575 152.3 453.575 153.314 454.378 154.226 455.381 154.226 456.485 154.226 457.288 153.314 457.288 152.3ZM461 141.862 461 141.862C455.381 141.862 450.766 146.524 450.766 152.3 450.766 158.076 455.381 162.738 461 162.738 466.719 162.738 471.334 158.076 471.334 152.3 471.334 146.524 466.719 141.862 461 141.862ZM461 166.488 461 166.488C453.274 166.488 446.953 160.103 446.953 152.3 446.953 144.497 453.274 138.113 461 138.113 468.826 138.113 475.147 144.497 475.147 152.3 475.147 160.103 468.826 166.488 461 166.488Z" fill="#FFFFFF" fill-rule="evenodd"/><path d="M379.027 123 379.027 123 363.676 123C361.368 123 359.261 124.392 358.458 126.579L356.953 130.457 346.719 130.457C343.609 130.457 341 132.943 341 136.025L341 169.432C341 172.514 343.609 175 346.719 175L395.381 175C398.492 175 401 172.514 401 169.432L401 136.025C401 132.943 398.492 130.457 395.381 130.457L385.147 130.457 383.441 125.983C382.739 124.193 381.033 123 379.027 123ZM379.027 126.679 379.027 126.679C379.428 126.679 379.829 126.977 379.93 127.275L382.538 134.136 395.381 134.136C396.485 134.136 397.288 134.931 397.288 136.025L397.288 169.432C397.288 170.426 396.485 171.321 395.381 171.321L346.719 171.321C345.615 171.321 344.813 170.426 344.813 169.432L344.813 136.025C344.813 134.931 345.615 134.136 346.719 134.136L359.562 134.136 361.97 127.872C362.171 127.176 362.873 126.679 363.676 126.679L379.027 126.679ZM367.288 152.728 367.288 152.728C367.288 150.641 368.993 149.05 371 149.05 372.104 149.05 372.906 148.155 372.906 147.161 372.906 146.166 372.104 145.272 371 145.272 366.886 145.272 363.575 148.652 363.575 152.728 363.575 153.723 364.378 154.618 365.381 154.618 366.485 154.618 367.288 153.723 367.288 152.728ZM371 142.488 371 142.488C365.381 142.488 360.766 147.061 360.766 152.728 360.766 158.396 365.381 162.969 371 162.969 376.719 162.969 381.334 158.396 381.334 152.728 381.334 147.061 376.719 142.488 371 142.488ZM371 166.648 371 166.648C363.274 166.648 356.953 160.384 356.953 152.728 356.953 145.073 363.274 138.809 371 138.809 378.826 138.809 385.147 145.073 385.147 152.728 385.147 160.384 378.826 166.648 371 166.648Z" fill="#FFFFFF" fill-rule="evenodd"/><g clip-path="url(#clip0)"><g clip-path="url(#clip1)"><g clip-path="url(#clip2)"><path d="M987.304 160.221 938.82 160.221C936.919 160.221 935.375 161.764 935.375 163.666L935.375 212.15C935.375 214.051 936.919 215.595 938.82 215.595L987.304 215.595C989.206 215.595 990.749 214.051 990.749 212.15L990.749 163.666C990.749 161.769 989.206 160.221 987.304 160.221ZM985.751 210.596 940.379 210.596 940.379 165.224 985.751 165.224 985.751 210.596Z" fill="#FFFFFF"/><path d="M963.065 158.15C964.055 158.15 964.857 157.349 964.857 156.358L964.857 150.762C964.857 149.772 964.055 148.97 963.065 148.97 962.074 148.97 961.273 149.772 961.273 150.762L961.273 156.363C961.273 157.349 962.074 158.15 963.065 158.15Z" fill="#FFFFFF"/><path d="M971.881 158.15C972.872 158.15 973.673 157.349 973.673 156.358L973.673 150.762C973.673 149.772 972.872 148.97 971.881 148.97 970.891 148.97 970.089 149.772 970.089 150.762L970.089 156.363C970.094 157.349 970.896 158.15 971.881 158.15Z" fill="#FFFFFF"/><path d="M954.243 158.15C955.234 158.15 956.035 157.349 956.035 156.358L956.035 150.762C956.035 149.772 955.234 148.97 954.243 148.97 953.253 148.97 952.451 149.772 952.451 150.762L952.451 156.363C952.451 157.349 953.253 158.15 954.243 158.15Z" fill="#FFFFFF"/><path d="M963.065 217.671C962.074 217.671 961.273 218.472 961.273 219.463L961.273 225.058C961.273 226.049 962.074 226.851 963.065 226.851 964.055 226.851 964.857 226.049 964.857 225.058L964.857 219.463C964.852 218.472 964.05 217.671 963.065 217.671Z" fill="#FFFFFF"/><path d="M971.881 217.671C970.891 217.671 970.089 218.472 970.089 219.463L970.089 225.058C970.089 226.049 970.891 226.851 971.881 226.851 972.872 226.851 973.673 226.049 973.673 225.058L973.673 219.463C973.673 218.472 972.872 217.671 971.881 217.671Z" fill="#FFFFFF"/><path d="M954.243 217.671C953.253 217.671 952.451 218.472 952.451 219.463L952.451 225.058C952.451 226.049 953.253 226.851 954.243 226.851 955.234 226.851 956.035 226.049 956.035 225.058L956.035 219.463C956.035 218.472 955.229 217.671 954.243 217.671Z" fill="#FFFFFF"/><path d="M931.512 186.118 925.917 186.118C924.926 186.118 924.124 186.92 924.124 187.91 924.124 188.901 924.926 189.703 925.917 189.703L931.517 189.703C932.508 189.703 933.309 188.901 933.309 187.91 933.304 186.92 932.503 186.118 931.512 186.118Z" fill="#FFFFFF"/><path d="M931.512 177.297 925.917 177.297C924.926 177.297 924.124 178.098 924.124 179.089 924.124 180.08 924.926 180.881 925.917 180.881L931.517 180.881C932.508 180.881 933.309 180.08 933.309 179.089 933.309 178.098 932.503 177.297 931.512 177.297Z" fill="#FFFFFF"/><path d="M931.512 194.94 925.917 194.94C924.926 194.94 924.124 195.741 924.124 196.732 924.124 197.723 924.926 198.524 925.917 198.524L931.517 198.524C932.508 198.524 933.309 197.723 933.309 196.732 933.304 195.741 932.503 194.94 931.512 194.94Z" fill="#FFFFFF"/><path d="M1000.21 186.118 994.612 186.118C993.622 186.118 992.82 186.92 992.82 187.91 992.82 188.901 993.622 189.703 994.612 189.703L1000.21 189.703C1001.2 189.703 1002.01 188.901 1002.01 187.91 1002 186.92 1001.2 186.118 1000.21 186.118Z" fill="#FFFFFF"/><path d="M994.612 180.881 1000.21 180.881C1001.2 180.881 1002.01 180.08 1002.01 179.089 1002.01 178.098 1001.2 177.297 1000.21 177.297L994.612 177.297C993.622 177.297 992.82 178.098 992.82 179.089 992.82 180.08 993.622 180.881 994.612 180.881Z" fill="#FFFFFF"/><path d="M1000.21 194.94 994.612 194.94C993.622 194.94 992.82 195.741 992.82 196.732 992.82 197.723 993.622 198.524 994.612 198.524L1000.21 198.524C1001.2 198.524 1002.01 197.723 1002.01 196.732 1002 195.741 1001.2 194.94 1000.21 194.94Z" fill="#FFFFFF"/></g></g></g><g clip-path="url(#clip3)"><g clip-path="url(#clip4)"><g clip-path="url(#clip5)"><path d="M987.304 334.221 938.82 334.221C936.919 334.221 935.375 335.764 935.375 337.666L935.375 386.15C935.375 388.051 936.919 389.595 938.82 389.595L987.304 389.595C989.206 389.595 990.749 388.051 990.749 386.15L990.749 337.666C990.749 335.769 989.206 334.221 987.304 334.221ZM985.751 384.596 940.379 384.596 940.379 339.224 985.751 339.224 985.751 384.596Z" fill="#FFFFFF"/><path d="M963.065 332.15C964.055 332.15 964.857 331.349 964.857 330.358L964.857 324.762C964.857 323.772 964.055 322.97 963.065 322.97 962.074 322.97 961.273 323.772 961.273 324.762L961.273 330.363C961.273 331.349 962.074 332.15 963.065 332.15Z" fill="#FFFFFF"/><path d="M971.881 332.15C972.872 332.15 973.673 331.349 973.673 330.358L973.673 324.762C973.673 323.772 972.872 322.97 971.881 322.97 970.891 322.97 970.089 323.772 970.089 324.762L970.089 330.363C970.094 331.349 970.896 332.15 971.881 332.15Z" fill="#FFFFFF"/><path d="M954.243 332.15C955.234 332.15 956.035 331.349 956.035 330.358L956.035 324.762C956.035 323.772 955.234 322.97 954.243 322.97 953.253 322.97 952.451 323.772 952.451 324.762L952.451 330.363C952.451 331.349 953.253 332.15 954.243 332.15Z" fill="#FFFFFF"/><path d="M963.065 391.671C962.074 391.671 961.273 392.472 961.273 393.463L961.273 399.058C961.273 400.049 962.074 400.851 963.065 400.851 964.055 400.851 964.857 400.049 964.857 399.058L964.857 393.463C964.852 392.472 964.05 391.671 963.065 391.671Z" fill="#FFFFFF"/><path d="M971.881 391.671C970.891 391.671 970.089 392.472 970.089 393.463L970.089 399.058C970.089 400.049 970.891 400.851 971.881 400.851 972.872 400.851 973.673 400.049 973.673 399.058L973.673 393.463C973.673 392.472 972.872 391.671 971.881 391.671Z" fill="#FFFFFF"/><path d="M954.243 391.671C953.253 391.671 952.451 392.472 952.451 393.463L952.451 399.058C952.451 400.049 953.253 400.851 954.243 400.851 955.234 400.851 956.035 400.049 956.035 399.058L956.035 393.463C956.035 392.472 955.229 391.671 954.243 391.671Z" fill="#FFFFFF"/><path d="M931.512 360.118 925.917 360.118C924.926 360.118 924.124 360.92 924.124 361.91 924.124 362.901 924.926 363.703 925.917 363.703L931.517 363.703C932.508 363.703 933.309 362.901 933.309 361.91 933.304 360.92 932.503 360.118 931.512 360.118Z" fill="#FFFFFF"/><path d="M931.512 351.297 925.917 351.297C924.926 351.297 924.124 352.098 924.124 353.089 924.124 354.08 924.926 354.881 925.917 354.881L931.517 354.881C932.508 354.881 933.309 354.08 933.309 353.089 933.309 352.098 932.503 351.297 931.512 351.297Z" fill="#FFFFFF"/><path d="M931.512 368.94 925.917 368.94C924.926 368.94 924.124 369.741 924.124 370.732 924.124 371.723 924.926 372.524 925.917 372.524L931.517 372.524C932.508 372.524 933.309 371.723 933.309 370.732 933.304 369.741 932.503 368.94 931.512 368.94Z" fill="#FFFFFF"/><path d="M1000.21 360.118 994.612 360.118C993.622 360.118 992.82 360.92 992.82 361.91 992.82 362.901 993.622 363.703 994.612 363.703L1000.21 363.703C1001.2 363.703 1002.01 362.901 1002.01 361.91 1002 360.92 1001.2 360.118 1000.21 360.118Z" fill="#FFFFFF"/><path d="M994.612 354.881 1000.21 354.881C1001.2 354.881 1002.01 354.08 1002.01 353.089 1002.01 352.098 1001.2 351.297 1000.21 351.297L994.612 351.297C993.622 351.297 992.82 352.098 992.82 353.089 992.82 354.08 993.622 354.881 994.612 354.881Z" fill="#FFFFFF"/><path d="M1000.21 368.94 994.612 368.94C993.622 368.94 992.82 369.741 992.82 370.732 992.82 371.723 993.622 372.524 994.612 372.524L1000.21 372.524C1001.2 372.524 1002.01 371.723 1002.01 370.732 1002 369.741 1001.2 368.94 1000.21 368.94Z" fill="#FFFFFF"/></g></g></g><g clip-path="url(#clip6)"><g clip-path="url(#clip7)"><g clip-path="url(#clip8)"><path d="M63.3041 11.2211 14.8204 11.2211C12.9187 11.2211 11.3754 12.7644 11.3754 14.6661L11.3754 63.1497C11.3754 65.0514 12.9187 66.5947 14.8204 66.5947L63.3041 66.5947C65.2058 66.5947 66.749 65.0514 66.749 63.1497L66.749 14.6661C66.749 12.7693 65.2058 11.2211 63.3041 11.2211ZM61.7508 61.5965 16.3786 61.5965 16.3786 16.2243 61.7508 16.2243 61.7508 61.5965Z" fill="#FFFFFF" transform="matrix(1 0 0 1.01282 924 514)"/><path d="M39.0647 9.15011C40.0554 9.15011 40.8569 8.34861 40.8569 7.35793L40.8569 1.76232C40.8569 0.771636 40.0554-0.0298698 39.0647-0.0298698 38.074-0.0298698 37.2725 0.771636 37.2725 1.76232L37.2725 7.36291C37.2725 8.34861 38.074 9.15011 39.0647 9.15011Z" fill="#FFFFFF" transform="matrix(1 0 0 1.01282 924 514)"/><path d="M47.8813 9.15011C48.872 9.15011 49.6735 8.34861 49.6735 7.35793L49.6735 1.76232C49.6735 0.771636 48.872-0.0298698 47.8813-0.0298698 46.8906-0.0298698 46.0891 0.771636 46.0891 1.76232L46.0891 7.36291C46.0941 8.34861 46.8956 9.15011 47.8813 9.15011Z" fill="#FFFFFF" transform="matrix(1 0 0 1.01282 924 514)"/><path d="M30.2432 9.15011C31.2339 9.15011 32.0354 8.34861 32.0354 7.35793L32.0354 1.76232C32.0354 0.771636 31.2339-0.0298698 30.2432-0.0298698 29.2525-0.0298698 28.451 0.771636 28.451 1.76232L28.451 7.36291C28.451 8.34861 29.2525 9.15011 30.2432 9.15011Z" fill="#FFFFFF" transform="matrix(1 0 0 1.01282 924 514)"/><path d="M39.0647 68.6707C38.074 68.6707 37.2725 69.4722 37.2725 70.4629L37.2725 76.0585C37.2725 77.0491 38.074 77.8507 39.0647 77.8507 40.0554 77.8507 40.8569 77.0491 40.8569 76.0585L40.8569 70.4629C40.8519 69.4722 40.0504 68.6707 39.0647 68.6707Z" fill="#FFFFFF" transform="matrix(1 0 0 1.01282 924 514)"/><path d="M47.8813 68.6707C46.8906 68.6707 46.0891 69.4722 46.0891 70.4629L46.0891 76.0585C46.0891 77.0491 46.8906 77.8507 47.8813 77.8507 48.872 77.8507 49.6735 77.0491 49.6735 76.0585L49.6735 70.4629C49.6735 69.4722 48.872 68.6707 47.8813 68.6707Z" fill="#FFFFFF" transform="matrix(1 0 0 1.01282 924 514)"/><path d="M30.2432 68.6707C29.2525 68.6707 28.451 69.4722 28.451 70.4629L28.451 76.0585C28.451 77.0491 29.2525 77.8507 30.2432 77.8507 31.2339 77.8507 32.0354 77.0491 32.0354 76.0585L32.0354 70.4629C32.0354 69.4722 31.2289 68.6707 30.2432 68.6707Z" fill="#FFFFFF" transform="matrix(1 0 0 1.01282 924 514)"/><path d="M7.51225 37.1182 1.91665 37.1182C0.925964 37.1182 0.124457 37.9197 0.124457 38.9104 0.124457 39.9011 0.925964 40.7026 1.91665 40.7026L7.51723 40.7026C8.50791 40.7026 9.30942 39.9011 9.30942 38.9104 9.30444 37.9197 8.50294 37.1182 7.51225 37.1182Z" fill="#FFFFFF" transform="matrix(1 0 0 1.01282 924 514)"/><path d="M7.51225 28.2967 1.91665 28.2967C0.925964 28.2967 0.124457 29.0982 0.124457 30.0888 0.124457 31.0795 0.925964 31.881 1.91665 31.881L7.51723 31.881C8.50791 31.881 9.30942 31.0795 9.30942 30.0888 9.30942 29.0982 8.50294 28.2967 7.51225 28.2967Z" fill="#FFFFFF" transform="matrix(1 0 0 1.01282 924 514)"/><path d="M7.51225 45.9398 1.91665 45.9398C0.925964 45.9398 0.124457 46.7413 0.124457 47.7319 0.124457 48.7226 0.925964 49.5241 1.91665 49.5241L7.51723 49.5241C8.50791 49.5241 9.30942 48.7226 9.30942 47.7319 9.30444 46.7413 8.50294 45.9398 7.51225 45.9398Z" fill="#FFFFFF" transform="matrix(1 0 0 1.01282 924 514)"/><path d="M76.2128 37.1182 70.6122 37.1182C69.6215 37.1182 68.82 37.9197 68.82 38.9104 68.82 39.9011 69.6215 40.7026 70.6122 40.7026L76.2128 40.7026C77.2035 40.7026 78.005 39.9011 78.005 38.9104 78 37.9197 77.1985 37.1182 76.2128 37.1182Z" fill="#FFFFFF" transform="matrix(1 0 0 1.01282 924 514)"/><path d="M70.6122 31.881 76.2128 31.881C77.2035 31.881 78.005 31.0795 78.005 30.0888 78.005 29.0982 77.2035 28.2967 76.2128 28.2967L70.6122 28.2967C69.6215 28.2967 68.82 29.0982 68.82 30.0888 68.82 31.0795 69.6215 31.881 70.6122 31.881Z" fill="#FFFFFF" transform="matrix(1 0 0 1.01282 924 514)"/><path d="M76.2128 45.9398 70.6122 45.9398C69.6215 45.9398 68.82 46.7413 68.82 47.7319 68.82 48.7226 69.6215 49.5241 70.6122 49.5241L76.2128 49.5241C77.2035 49.5241 78.005 48.7226 78.005 47.7319 78 46.7413 77.1985 45.9398 76.2128 45.9398Z" fill="#FFFFFF" transform="matrix(1 0 0 1.01282 924 514)"/></g></g></g><g clip-path="url(#clip9)"><g clip-path="url(#clip10)"><g clip-path="url(#clip11)"><path d="M241.304 490.221 192.82 490.221C190.919 490.221 189.375 491.764 189.375 493.666L189.375 542.15C189.375 544.051 190.919 545.595 192.82 545.595L241.304 545.595C243.206 545.595 244.749 544.051 244.749 542.15L244.749 493.666C244.749 491.769 243.206 490.221 241.304 490.221ZM239.751 540.596 194.379 540.596 194.379 495.224 239.751 495.224 239.751 540.596Z" fill="#FFFFFF"/><path d="M217.065 488.15C218.055 488.15 218.857 487.349 218.857 486.358L218.857 480.762C218.857 479.772 218.055 478.97 217.065 478.97 216.074 478.97 215.273 479.772 215.273 480.762L215.273 486.363C215.273 487.349 216.074 488.15 217.065 488.15Z" fill="#FFFFFF"/><path d="M225.881 488.15C226.872 488.15 227.673 487.349 227.673 486.358L227.673 480.762C227.673 479.772 226.872 478.97 225.881 478.97 224.891 478.97 224.089 479.772 224.089 480.762L224.089 486.363C224.094 487.349 224.896 488.15 225.881 488.15Z" fill="#FFFFFF"/><path d="M208.243 488.15C209.234 488.15 210.035 487.349 210.035 486.358L210.035 480.762C210.035 479.772 209.234 478.97 208.243 478.97 207.252 478.97 206.451 479.772 206.451 480.762L206.451 486.363C206.451 487.349 207.252 488.15 208.243 488.15Z" fill="#FFFFFF"/><path d="M217.065 547.671C216.074 547.671 215.273 548.472 215.273 549.463L215.273 555.058C215.273 556.049 216.074 556.851 217.065 556.851 218.055 556.851 218.857 556.049 218.857 555.058L218.857 549.463C218.852 548.472 218.05 547.671 217.065 547.671Z" fill="#FFFFFF"/><path d="M225.881 547.671C224.891 547.671 224.089 548.472 224.089 549.463L224.089 555.058C224.089 556.049 224.891 556.851 225.881 556.851 226.872 556.851 227.673 556.049 227.673 555.058L227.673 549.463C227.673 548.472 226.872 547.671 225.881 547.671Z" fill="#FFFFFF"/><path d="M208.243 547.671C207.252 547.671 206.451 548.472 206.451 549.463L206.451 555.058C206.451 556.049 207.252 556.851 208.243 556.851 209.234 556.851 210.035 556.049 210.035 555.058L210.035 549.463C210.035 548.472 209.229 547.671 208.243 547.671Z" fill="#FFFFFF"/><path d="M185.512 516.118 179.917 516.118C178.926 516.118 178.124 516.92 178.124 517.91 178.124 518.901 178.926 519.703 179.917 519.703L185.517 519.703C186.508 519.703 187.309 518.901 187.309 517.91 187.304 516.92 186.503 516.118 185.512 516.118Z" fill="#FFFFFF"/><path d="M185.512 507.297 179.917 507.297C178.926 507.297 178.124 508.098 178.124 509.089 178.124 510.08 178.926 510.881 179.917 510.881L185.517 510.881C186.508 510.881 187.309 510.08 187.309 509.089 187.309 508.098 186.503 507.297 185.512 507.297Z" fill="#FFFFFF"/><path d="M185.512 524.94 179.917 524.94C178.926 524.94 178.124 525.741 178.124 526.732 178.124 527.723 178.926 528.524 179.917 528.524L185.517 528.524C186.508 528.524 187.309 527.723 187.309 526.732 187.304 525.741 186.503 524.94 185.512 524.94Z" fill="#FFFFFF"/><path d="M254.213 516.118 248.612 516.118C247.622 516.118 246.82 516.92 246.82 517.91 246.82 518.901 247.622 519.703 248.612 519.703L254.213 519.703C255.203 519.703 256.005 518.901 256.005 517.91 256 516.92 255.198 516.118 254.213 516.118Z" fill="#FFFFFF"/><path d="M248.612 510.881 254.213 510.881C255.203 510.881 256.005 510.08 256.005 509.089 256.005 508.098 255.203 507.297 254.213 507.297L248.612 507.297C247.622 507.297 246.82 508.098 246.82 509.089 246.82 510.08 247.622 510.881 248.612 510.881Z" fill="#FFFFFF"/><path d="M254.213 524.94 248.612 524.94C247.622 524.94 246.82 525.741 246.82 526.732 246.82 527.723 247.622 528.524 248.612 528.524L254.213 528.524C255.203 528.524 256.005 527.723 256.005 526.732 256 525.741 255.198 524.94 254.213 524.94Z" fill="#FFFFFF"/></g></g></g><text fill="#0EAFE0" font-family="Poppins,Poppins_MSFontService,sans-serif" font-weight="400" font-size="16" transform="translate(41.5307 152)">User</text><text fill="#FFFFFF" font-family="Poppins,Poppins_MSFontService,sans-serif" font-weight="400" font-size="16" transform="translate(164.196 199)">Control panel</text><text fill="#FFFFFF" font-family="Poppins,Poppins_MSFontService,sans-serif" font-weight="400" font-size="16" transform="translate(183.85 306)">Camera</text><text fill="#FFFFFF" font-family="Poppins,Poppins_MSFontService,sans-serif" font-weight="400" font-size="16" transform="translate(185.104 325)">selector</text><text fill="#FFFFFF" font-family="Poppins,Poppins_MSFontService,sans-serif" font-weight="400" font-size="16" transform="translate(194.18 430)">Angle</text><text fill="#FFFFFF" font-family="Poppins,Poppins_MSFontService,sans-serif" font-weight="400" font-size="16" transform="translate(185.1 449)">selector</text><text fill="#FFFFFF" font-family="Poppins,Poppins_MSFontService,sans-serif" font-weight="400" font-size="16" transform="translate(182.35 573)">Backend</text><text fill="#FFFFFF" font-family="Poppins,Poppins_MSFontService,sans-serif" font-weight="400" font-size="16" transform="translate(185.097 592)">selector</text><text fill="#FFFFFF" font-family="Poppins,Poppins_MSFontService,sans-serif" font-weight="400" font-size="16" transform="translate(331.204 195)">Camera 1</text><text fill="#FFFFFF" font-family="Poppins,Poppins_MSFontService,sans-serif" font-weight="400" font-size="16" transform="translate(416.648 195)">Camera 2</text><text fill="#0EAFE0" font-family="Poppins,Poppins_MSFontService,sans-serif" font-weight="400" font-size="16" transform="translate(351.378 495)">IPC Message</text><text fill="#0EAFE0" font-family="Poppins,Poppins_MSFontService,sans-serif" font-weight="400" font-size="16" transform="translate(375.958 514)">Queue</text><text fill="#FFFFFF" font-family="Poppins,Poppins_MSFontService,sans-serif" font-weight="400" font-size="16" transform="translate(557.438 204)">Frame Capture</text><text fill="#FFFFFF" font-family="Poppins,Poppins_MSFontService,sans-serif" font-weight="400" font-size="16" transform="translate(592.525 223)">(V4L2)</text><text fill="#FFFFFF" font-family="Poppins,Poppins_MSFontService,sans-serif" font-weight="400" font-size="16" transform="translate(661.624 127)">If needed</text><text fill="#FFFFFF" font-family="Poppins,Poppins_MSFontService,sans-serif" font-weight="400" font-size="16" transform="translate(783.533 198)">Color</text><text fill="#FFFFFF" font-family="Poppins,Poppins_MSFontService,sans-serif" font-weight="400" font-size="16" transform="translate(759.7 217)">Conversion</text><text fill="#FFFFFF" font-family="Poppins,Poppins_MSFontService,sans-serif" font-weight="400" font-size="16" transform="translate(619.96 499)">Listener</text><text fill="#FFFFFF" font-family="Poppins,Poppins_MSFontService,sans-serif" font-weight="400" font-size="16" transform="translate(622.294 518)">Thread</text><text fill="#FFFFFF" font-family="Poppins,Poppins_MSFontService,sans-serif" font-weight="400" font-size="16" transform="translate(715.348 491)">Set angle/backend</text><text fill="#FFFFFF" font-family="Poppins,Poppins_MSFontService,sans-serif" font-weight="400" font-size="16" transform="translate(733.181 510)">(</text><text fill="#FFFFFF" font-family="Poppins,Poppins_MSFontService,sans-serif" font-weight="400" font-size="16" transform="translate(740.514 510)">OpenVG</text><text fill="#FFFFFF" font-family="Poppins,Poppins_MSFontService,sans-serif" font-weight="400" font-size="16" transform="translate(807.348 510)">, G2D,</text><text fill="#FFFFFF" font-family="Poppins,Poppins_MSFontService,sans-serif" font-weight="400" font-size="16" transform="translate(719.928 529)">OpenGL, OpenCV)</text><text fill="#FFFFFF" font-family="Poppins,Poppins_MSFontService,sans-serif" font-weight="400" font-size="16" transform="translate(936.372 257)">G</text><text fill="#FFFFFF" font-family="Poppins,Poppins_MSFontService,sans-serif" font-weight="400" font-size="16" transform="translate(948.872 257)">PU2D</text><text fill="#FFFFFF" font-family="Poppins,Poppins_MSFontService,sans-serif" font-weight="400" font-size="16" transform="translate(939.118 276)">(G2D)</text><text fill="#FFFFFF" font-family="Poppins,Poppins_MSFontService,sans-serif" font-weight="400" font-size="16" transform="translate(936.205 430)">GPU3D</text><text fill="#FFFFFF" font-family="Poppins,Poppins_MSFontService,sans-serif" font-weight="400" font-size="16" transform="translate(924.205 449)">(OpenGL)</text><text fill="#FFFFFF" font-family="Poppins,Poppins_MSFontService,sans-serif" font-weight="400" font-size="16" transform="translate(911.007 612)">CPU (Cortex</text><text fill="#FFFFFF" font-family="Poppins,Poppins_MSFontService,sans-serif" font-weight="400" font-size="16" transform="translate(1007.17 612)">-</text><text fill="#FFFFFF" font-family="Poppins,Poppins_MSFontService,sans-serif" font-weight="400" font-size="16" transform="translate(917.254 631)">A/OpenCV)</text><text fill="#FFFFFF" font-family="Poppins,Poppins_MSFontService,sans-serif" font-weight="400" font-size="16" transform="translate(1072.75 402)">Rendering</text><text fill="#FFFFFF" font-family="Poppins,Poppins_MSFontService,sans-serif" font-weight="400" font-size="16" transform="translate(1070.42 421)">(Wayland/</text><text fill="#FFFFFF" font-family="Poppins,Poppins_MSFontService,sans-serif" font-weight="400" font-size="16" transform="translate(1093 440)">XDG)</text><text fill="#0EAFE0" font-family="Poppins,Poppins_MSFontService,sans-serif" font-weight="400" font-size="16" transform="translate(1187.23 411)">Wayland</text><text fill="#0EAFE0" font-family="Poppins,Poppins_MSFontService,sans-serif" font-weight="400" font-size="16" transform="translate(1175.73 430)">Compositor</text><path d="M158 71C158 69.3432 159.343 68 161 68L236 68C237.657 68 239 69.3432 239 71L239 83C239 84.6568 237.657 86 236 86L161 86C159.343 86 158 84.6568 158 83Z" stroke="#EBE7DD" stroke-width="2" stroke-miterlimit="8" fill="#EBE7DD" fill-rule="evenodd"/><text fill="#F9B500" font-family="Poppins,Poppins_MSFontService,sans-serif" font-weight="400" font-size="12" transform="translate(184.567 80)">QT GUI</text><path d="M338 99.1668C338 97.4178 339.418 96 341.167 96L436.833 96C438.582 96 440 97.4178 440 99.1668L440 111.833C440 113.582 438.582 115 436.833 115L341.167 115C339.418 115 338 113.582 338 111.833Z" stroke="#EBE7DD" stroke-width="2" stroke-miterlimit="8" fill="#EBE7DD" fill-rule="evenodd"/><text fill="#F9B500" font-family="Poppins,Poppins_MSFontService,sans-serif" font-weight="400" font-size="12" transform="translate(357.742 109)">V4L2 DEVICES</text><path d="M350.873 100 350.873 100 347.291 100C346.753 100 346.261 100.321 346.074 100.826L345.722 101.721 343.334 101.721C342.609 101.721 342 102.294 342 103.006L342 110.715C342 111.426 342.609 112 343.334 112L354.689 112C355.415 112 356 111.426 356 110.715L356 103.006C356 102.294 355.415 101.721 354.689 101.721L352.301 101.721 351.903 100.688C351.739 100.275 351.341 100 350.873 100ZM350.873 100.849 350.873 100.849C350.967 100.849 351.06 100.918 351.084 100.987L351.692 102.57 354.689 102.57C354.947 102.57 355.134 102.753 355.134 103.006L355.134 110.715C355.134 110.945 354.947 111.151 354.689 111.151L343.334 111.151C343.077 111.151 342.89 110.945 342.89 110.715L342.89 103.006C342.89 102.753 343.077 102.57 343.334 102.57L346.331 102.57 346.893 101.124C346.94 100.964 347.104 100.849 347.291 100.849L350.873 100.849ZM348.134 106.86 348.134 106.86C348.134 106.379 348.532 106.011 349 106.011 349.258 106.011 349.445 105.805 349.445 105.576 349.445 105.346 349.258 105.14 349 105.14 348.04 105.14 347.268 105.92 347.268 106.86 347.268 107.09 347.455 107.296 347.689 107.296 347.947 107.296 348.134 107.09 348.134 106.86ZM349 104.497 349 104.497C347.689 104.497 346.612 105.553 346.612 106.86 346.612 108.168 347.689 109.224 349 109.224 350.334 109.224 351.411 108.168 351.411 106.86 351.411 105.553 350.334 104.497 349 104.497ZM349 110.073 349 110.073C347.197 110.073 345.722 108.627 345.722 106.86 345.722 105.094 347.197 103.648 349 103.648 350.826 103.648 352.301 105.094 352.301 106.86 352.301 108.627 350.826 110.073 349 110.073Z" fill="#F9B500" fill-rule="evenodd"/><path d="M179.301 70C164.74 70 164.74 70 164.74 70 164.329 70 164 70.3478 164 70.7391 164 80.2174 164 80.2174 164 80.2174 164 80.6087 164.329 80.9565 164.74 80.9565 171.445 80.9565 171.445 80.9565 171.445 80.9565 171.445 82.8261 171.445 82.8261 171.445 82.8261 166.756 82.8261 166.756 82.8261 166.756 82.8261 166.591 82.8261 166.427 83 166.427 83.1739 166.427 83.6956 166.427 83.6956 166.427 83.6956 166.427 83.8696 166.591 84 166.756 84 177.285 84 177.285 84 177.285 84 177.45 84 177.573 83.8696 177.573 83.6956 177.573 83.1739 177.573 83.1739 177.573 83.1739 177.573 83 177.45 82.8261 177.285 82.8261 172.555 82.8261 172.555 82.8261 172.555 82.8261 172.555 80.9565 172.555 80.9565 172.555 80.9565 179.301 80.9565 179.301 80.9565 179.301 80.9565 179.671 80.9565 180 80.6087 180 80.2174 180 70.7391 180 70.7391 180 70.7391 180 70.3478 179.671 70 179.301 70ZM178.931 79.8261C165.111 79.8261 165.111 79.8261 165.111 79.8261 165.111 71.1304 165.111 71.1304 165.111 71.1304 178.931 71.1304 178.931 71.1304 178.931 71.1304L178.931 79.8261Z" fill="#F9B500" fill-rule="evenodd"/><path d="M612 78.0001C612 76.3432 613.343 75 615 75L784 75C785.657 75 787 76.3432 787 78.0001L787 89.9999C787 91.6568 785.657 93 784 93L615 93C613.343 93 612 91.6568 612 89.9999Z" stroke="#EBE7DD" stroke-width="2" stroke-miterlimit="8" fill="#EBE7DD" fill-rule="evenodd"/><text fill="#69CA00" font-family="Poppins,Poppins_MSFontService,sans-serif" font-weight="400" font-size="12" transform="translate(638.006 89)">ROTATION APPLICATION</text><g clip-path="url(#clip12)"><g clip-path="url(#clip13)"><g clip-path="url(#clip14)"><path d="M629.362 80.014 620.66 80.014C620.319 80.014 620.042 80.291 620.042 80.6324L620.042 89.3346C620.042 89.6759 620.319 89.9529 620.66 89.9529L629.362 89.9529C629.704 89.9529 629.981 89.6759 629.981 89.3346L629.981 80.6324C629.981 80.2919 629.704 80.014 629.362 80.014ZM629.083 89.0558 620.94 89.0558 620.94 80.912 629.083 80.912 629.083 89.0558Z" fill="#69CA00"/><path d="M625.012 79.6423C625.189 79.6423 625.333 79.4985 625.333 79.3207L625.333 78.3163C625.333 78.1385 625.189 77.9946 625.012 77.9946 624.834 77.9946 624.69 78.1385 624.69 78.3163L624.69 79.3215C624.69 79.4985 624.834 79.6423 625.012 79.6423Z" fill="#69CA00"/><path d="M626.594 79.6423C626.772 79.6423 626.916 79.4985 626.916 79.3207L626.916 78.3163C626.916 78.1385 626.772 77.9946 626.594 77.9946 626.416 77.9946 626.272 78.1385 626.272 78.3163L626.272 79.3215C626.273 79.4985 626.417 79.6423 626.594 79.6423Z" fill="#69CA00"/><path d="M623.428 79.6423C623.606 79.6423 623.75 79.4985 623.75 79.3207L623.75 78.3163C623.75 78.1385 623.606 77.9946 623.428 77.9946 623.25 77.9946 623.107 78.1385 623.107 78.3163L623.107 79.3215C623.107 79.4985 623.25 79.6423 623.428 79.6423Z" fill="#69CA00"/><path d="M625.012 90.3255C624.834 90.3255 624.69 90.4694 624.69 90.6472L624.69 91.6515C624.69 91.8293 624.834 91.9732 625.012 91.9732 625.189 91.9732 625.333 91.8293 625.333 91.6515L625.333 90.6472C625.332 90.4694 625.189 90.3255 625.012 90.3255Z" fill="#69CA00"/><path d="M626.594 90.3255C626.416 90.3255 626.272 90.4694 626.272 90.6472L626.272 91.6515C626.272 91.8293 626.416 91.9732 626.594 91.9732 626.772 91.9732 626.916 91.8293 626.916 91.6515L626.916 90.6472C626.916 90.4694 626.772 90.3255 626.594 90.3255Z" fill="#69CA00"/><path d="M623.428 90.3255C623.25 90.3255 623.107 90.4694 623.107 90.6472L623.107 91.6515C623.107 91.8293 623.25 91.9732 623.428 91.9732 623.606 91.9732 623.75 91.8293 623.75 91.6515L623.75 90.6472C623.75 90.4694 623.605 90.3255 623.428 90.3255Z" fill="#69CA00"/><path d="M619.348 84.6622 618.344 84.6622C618.166 84.6622 618.022 84.8061 618.022 84.9839 618.022 85.1617 618.166 85.3056 618.344 85.3056L619.349 85.3056C619.527 85.3056 619.671 85.1617 619.671 84.9839 619.67 84.8061 619.526 84.6622 619.348 84.6622Z" fill="#69CA00"/><path d="M619.348 83.0789 618.344 83.0789C618.166 83.0789 618.022 83.2227 618.022 83.4006 618.022 83.5784 618.166 83.7222 618.344 83.7222L619.349 83.7222C619.527 83.7222 619.671 83.5784 619.671 83.4006 619.671 83.2227 619.526 83.0789 619.348 83.0789Z" fill="#69CA00"/><path d="M619.348 86.2456 618.344 86.2456C618.166 86.2456 618.022 86.3895 618.022 86.5673 618.022 86.7451 618.166 86.8889 618.344 86.8889L619.349 86.8889C619.527 86.8889 619.671 86.7451 619.671 86.5673 619.67 86.3895 619.526 86.2456 619.348 86.2456Z" fill="#69CA00"/><path d="M631.679 84.6622 630.674 84.6622C630.496 84.6622 630.352 84.8061 630.352 84.9839 630.352 85.1617 630.496 85.3056 630.674 85.3056L631.679 85.3056C631.857 85.3056 632.001 85.1617 632.001 84.9839 632 84.8061 631.856 84.6622 631.679 84.6622Z" fill="#69CA00"/><path d="M630.674 83.7222 631.679 83.7222C631.857 83.7222 632.001 83.5784 632.001 83.4006 632.001 83.2227 631.857 83.0789 631.679 83.0789L630.674 83.0789C630.496 83.0789 630.352 83.2227 630.352 83.4006 630.352 83.5784 630.496 83.7222 630.674 83.7222Z" fill="#69CA00"/><path d="M631.679 86.2456 630.674 86.2456C630.496 86.2456 630.352 86.3895 630.352 86.5673 630.352 86.7451 630.496 86.8889 630.674 86.8889L631.679 86.8889C631.857 86.8889 632.001 86.7451 632.001 86.5673 632 86.3895 631.856 86.2456 631.679 86.2456Z" fill="#69CA00"/></g></g></g><path d="M912 83.0001C912 79.6863 914.686 77 918 77L1005 77C1008.31 77 1011 79.6863 1011 83.0001L1011 107C1011 110.314 1008.31 113 1005 113L918 113C914.686 113 912 110.314 912 107Z" stroke="#EBE7DD" stroke-width="2" stroke-miterlimit="8" fill="#EBE7DD" fill-rule="evenodd"/><text fill="#0EAFE0" font-family="Poppins,Poppins_MSFontService,sans-serif" font-weight="400" font-size="12" transform="translate(938.823 91)">ROTATION</text><text fill="#0EAFE0" font-family="Poppins,Poppins_MSFontService,sans-serif" font-weight="400" font-size="12" transform="translate(938.823 105)">PROCESS</text><path d="M933.693 89C933.387 89 933.387 89 933.387 89 933.217 89 933.08 89.1366 933.08 89.3073 932.91 92.5512 930.253 95.1122 927.017 95.1122 924.701 95.1122 922.623 93.8146 921.567 91.8 921.567 91.7659 921.567 91.7659 921.567 91.7659 922.487 91.7659 922.487 91.7659 922.487 91.7659 922.691 91.7659 922.827 91.5951 922.827 91.4244 922.827 91.1512 922.827 91.1512 922.827 91.1512 922.827 90.9805 922.691 90.8439 922.487 90.8439 920.307 90.8439 920.307 90.8439 920.307 90.8439 920.136 90.8439 920 90.9805 920 91.1512 920 93.5415 920 93.5415 920 93.5415 920 93.7122 920.136 93.8488 920.307 93.8488 920.579 93.8488 920.579 93.8488 920.579 93.8488 920.783 93.8488 920.92 93.7122 920.92 93.5415 920.92 92.4488 920.92 92.4488 920.92 92.4488 920.954 92.5512 920.954 92.5512 920.954 92.5512 922.214 94.6683 924.53 96 927.017 96 930.73 96 933.83 93.0976 934 89.3415 934 89.2732 933.966 89.1707 933.898 89.1024 933.864 89.0341 933.762 89 933.693 89Z" fill="#0EAFE0" fill-rule="evenodd"/><path d="M933.693 84.8439C933.421 84.8439 933.421 84.8439 933.421 84.8439 933.251 84.8439 933.08 84.961 933.08 85.1366 933.08 86.0439 933.08 86.0439 933.08 86.0439 933.046 85.9854 933.046 85.9854 933.046 85.9854 931.786 84.1415 929.47 83 927.017 83 923.27 83 920.204 85.5171 920 88.7073 920 88.7951 920.034 88.8537 920.102 88.9122 920.136 88.9707 920.238 89 920.307 89 920.613 89 920.613 89 920.613 89 920.783 89 920.92 88.8829 920.92 88.7366 921.09 85.9561 923.747 83.7902 927.017 83.7902 929.299 83.7902 931.377 84.8732 932.433 86.6293 932.433 86.6585 932.433 86.6585 932.433 86.6585 931.445 86.6585 931.445 86.6585 931.445 86.6585 931.275 86.6585 931.139 86.7756 931.139 86.922 931.139 87.1561 931.139 87.1561 931.139 87.1561 931.139 87.3317 931.275 87.4488 931.445 87.4488 933.693 87.4488 933.693 87.4488 933.693 87.4488 933.864 87.4488 934 87.3317 934 87.1561 934 85.1366 934 85.1366 934 85.1366 934 84.961 933.864 84.8439 933.693 84.8439Z" fill="#0EAFE0" fill-rule="evenodd"/><path d="M110 90 133.187 90.0001 133.187 94.0001 110 94ZM131.187 86.0001 143.187 92.0001 131.187 98.0001Z" fill="#EBE7DD"/><path d="M153.021 516 168.263 516.159 168.221 520.159 152.979 520ZM166.304 512.138 178.241 518.263 166.179 524.138Z" fill="#EBE7DD"/><path d="M153.021 387 168.263 387.159 168.221 391.159 152.979 391ZM166.304 383.138 178.241 389.263 166.179 395.138Z" fill="#EBE7DD"/><path d="M153.021 263 168.263 263.159 168.221 267.159 152.979 267ZM166.304 259.138 178.241 265.263 166.179 271.138Z" fill="#EBE7DD"/><path d="M153.021 154 168.263 154.159 168.221 158.159 152.979 158ZM166.304 150.138 178.241 156.263 166.179 162.138Z" fill="#EBE7DD"/><path d="M283.009 456 368.706 456.367 368.689 460.367 282.991 460ZM366.724 452.358 378.698 458.41 366.672 464.358Z" fill="#EBE7DD"/><path d="M434 456 615.564 456 615.564 460 434 460ZM613.564 452 625.564 458 613.564 464Z" fill="#EBE7DD"/><path d="M682 456 882.796 456 882.796 460 682 460ZM880.796 452 892.796 458 880.796 464Z" fill="#EBE7DD"/><path d="M0.194892-1.99048 3.95473-1.62235 7.83486-0.506217 11.5994 1.2686 15.2248 3.63802 18.6929 6.54593 21.9858 9.94232 25.0842 13.7809 27.9867 18.047 32.9908 27.5077 36.8408 38.0448 38.2771 43.6556 39.3331 49.3742 39.9883 55.1895 40.2104 60.98 40.4296 66.6966 40.4185 66.5493 41.0576 72.2212 41.0369 72.082 42.0678 77.6644 42.0385 77.5316 43.4332 82.9799 43.3742 82.7895 47.1432 93.1047 47.0326 92.856 51.921 102.098 51.8067 101.908 54.6007 106.015 54.5034 105.884 57.4934 109.588 57.373 109.452 60.5309 112.709 60.38 112.569 63.6778 115.334 63.2982 115.083 67.7807 117.359 65.97 120.925 61.2833 118.546 57.7309 115.567 54.4379 112.171 51.3396 108.332 48.4371 104.066 43.4329 94.6056 39.5829 84.0685 38.1466 78.4577 37.0906 72.7391 36.4354 66.9237 36.2133 61.1333 35.9941 55.4167 36.0052 55.5639 35.3662 49.8921 35.3868 50.0313 34.356 44.4489 34.3852 44.5817 32.9905 39.1334 33.0495 39.3238 29.2806 29.0085 29.3912 29.2573 24.5028 20.0153 24.6171 20.2052 21.8231 16.0985 21.9204 16.2297 18.9304 12.5254 19.0508 12.6614 15.8929 9.40438 16.0438 9.54475 12.7459 6.77962 12.9368 6.92121 9.527 4.6927 9.76828 4.82758 6.27454 3.18042 6.57454 3.29345 3.02482 2.27236 3.38282 2.34078-0.194892 1.99048ZM66.7484 112.819 76.4237 122.113 63.1829 124.277Z" fill="#EBE7DD" transform="matrix(1 0 0 -1 247 265.113)"/><path d="M508 148 569.776 148 569.776 152 508 152ZM567.776 144 579.776 150 567.776 156Z" fill="#EBE7DD"/><path d="M645 149 744.122 149 744.122 153 645 153ZM742.122 145 754.122 151 742.122 157Z" fill="#EBE7DD"/><path d="M0.0197841-1.9999 44.8244-1.55667 44.7848 2.44313-0.0197841 1.9999ZM42.864-5.57626 54.8041 0.542152 42.7453 6.42315Z" fill="#EBE7DD" transform="matrix(1 0 0 -1 843 150.542)"/><text fill="#FFFFFF" font-family="Poppins,Poppins_MSFontService,sans-serif" font-weight="400" font-size="16" transform="translate(664.565 253)">If no conversion</text><path d="M0-2 55.7521-2 55.7521 259.383 51.7521 259.383 51.7521 0 53.7521 2 0 2ZM59.7521 257.384 53.7521 269.384 47.7521 257.384Z" fill="#EBE7DD" transform="matrix(1.83697e-16 1 1 -1.83697e-16 618 233)"/><path d="M1029 368 1068.42 368 1068.42 372 1029 372ZM1066.42 364 1078.42 370 1066.42 376Z" fill="#EBE7DD"/><path d="M1146 368 1185.42 368 1185.42 372 1146 372ZM1183.42 364 1195.42 370 1183.42 376Z" fill="#EBE7DD"/></g></svg>